<?xml version="1.0" encoding="iso-8859-1"?>
<!-- Generator: Adobe Illustrator 19.0.0, SVG Export Plug-In . SVG Version: 6.00 Build 0)  -->
<svg version="1.1" id="Layer_1" xmlns="http://www.w3.org/2000/svg" xmlns:xlink="http://www.w3.org/1999/xlink" x="0px" y="0px"
	 viewBox="0 0 512 512" style="enable-background:new 0 0 512 512;" xml:space="preserve">
<g>
	<g>
		<path d="M504.025,304.965L379.843,180.783c-5.143-5.142-11.98-7.974-19.253-7.974c-7.272,0-14.11,2.832-19.252,7.974
			l-111.261,111.26V272.78c0-6.327-2.175-12.151-5.809-16.779c3.633-4.628,5.809-10.452,5.809-16.779V63.6
			c0-15.014-12.215-27.229-27.229-27.229H27.229C12.215,36.372,0,48.587,0,63.6v175.621c0,6.327,2.175,12.151,5.809,16.779
			C2.175,260.628,0,266.453,0,272.78V448.4c0,15.014,12.215,27.229,27.229,27.229h175.62c15.014,0,27.229-12.215,27.229-27.229
			v-92.004l111.259,111.258c5.143,5.143,11.98,7.976,19.253,7.976c7.274,0,14.11-2.833,19.252-7.975l124.183-124.182
			c5.143-5.143,7.975-11.981,7.975-19.254C512,316.946,509.168,310.108,504.025,304.965z M209.18,448.4
			c-0.001,3.491-2.84,6.33-6.331,6.33H27.229c-3.491,0-6.331-2.84-6.331-6.331V272.78c0-3.491,2.84-6.331,6.331-6.331h175.62
			c3.491,0,6.331,2.84,6.331,6.331V448.4z M209.18,239.222c0,3.49-2.84,6.33-6.331,6.33H27.229c-3.491,0-6.331-2.839-6.331-6.33
			V63.6c0-3.491,2.84-6.331,6.331-6.331H46.15v33.352c0,5.771,4.678,10.449,10.449,10.449s10.449-4.678,10.449-10.449V57.27h135.801
			c3.491,0,6.331,2.84,6.331,6.331V239.222z M489.248,328.695L365.064,452.878c-1.194,1.195-2.784,1.854-4.475,1.854
			c-1.692,0-3.28-0.658-4.475-1.855L231.932,328.696c-1.193-1.193-1.852-2.779-1.854-4.467v-0.021
			c0.003-1.688,0.66-3.273,1.854-4.466L356.115,195.56c1.195-1.195,2.785-1.854,4.475-1.854s3.281,0.658,4.475,1.854
			l124.184,124.183c1.195,1.194,1.854,2.785,1.854,4.475C491.102,325.91,490.444,327.499,489.248,328.695z"/>
	</g>
</g>
<g>
	<g>
		<path d="M56.642,113.976c-0.015,0-0.029,0-0.044,0c-5.75,0-10.424,4.65-10.448,10.405l-0.001,0.245
			c-0.023,5.771,4.635,10.469,10.406,10.493c0.015,0,0.029,0,0.044,0c5.75,0,10.424-4.65,10.448-10.406l0.001-0.245
			C67.072,118.698,62.413,113.999,56.642,113.976z"/>
	</g>
</g>
<g>
	<g>
		<path d="M173.87,210.926L124.599,84.162c-1.839-4.413-4.934-6.618-9.285-6.618c-4.228,0-7.323,2.206-9.284,6.618L56.943,210.466
			c-2.287,4.983-0.399,11.121,4.765,13.382c4.943,2.166,10.809-0.329,12.977-5.2l17.098-43.664h47.065l17.006,43.664
			c2.145,4.834,7.816,7.304,12.754,5.263C173.647,221.828,175.859,215.91,173.87,210.926z M99.319,155.497l15.995-41.275
			l15.995,41.275H99.319z"/>
	</g>
</g>
<g>
	<g>
		<path d="M147.763,357.816c-2.819-2.88-6.098-5.423-9.836-7.63c5.761-6.924,8.641-15.043,8.641-24.36
			c0-20.716-17.339-38.056-38.056-38.056H80.107c-5.284,0-9.744,4.466-9.744,9.744v127.591c0,5.278,4.46,9.744,9.744,9.744h35.483
			C155.245,434.849,174.616,385.272,147.763,357.816z M89.852,307.257h18.661c4.313,0,8.482,1.59,11.783,4.353
			c5.974,4.999,8.454,13.413,5.594,20.756c-2.778,7.134-9.673,12.121-17.378,12.121H89.852V307.257z M139.626,398.63
			c-3.768,9.955-13.362,16.731-24.035,16.731H89.852v-51.386h25.738c6.043,0,11.949,2.204,16.557,6.108
			C140.287,376.98,143.414,388.62,139.626,398.63z"/>
	</g>
</g>
<g>
	<g>
		<path d="M431.575,324.054c-3.675-3.674-9.883-3.721-13.629-0.136c0.11-0.118,0.118-0.133-0.151,0.136
			c-0.804,0.85-0.488,0.531-0.155,0.186c-1.417,1.554-2.307,3.245-2.639,5.077c-1.301,12.48-6.478,23.249-15.536,32.306
			c-10.617,10.617-23.38,15.925-38.285,15.925c-14.821,0-27.539-5.308-38.157-15.925c-10.572-10.572-15.86-23.27-15.86-38.091
			c0-14.992,5.286-27.775,15.86-38.35c4.463-4.463,9.371-7.984,14.722-10.563c5.352-2.579,10.975-4.214,16.868-4.908
			c5.196-0.324,9.625-4.264,9.62-9.685c-0.004-4.985-4.345-9.907-9.49-9.815c-18.027,1.821-33.193,8.884-45.5,21.191
			c-14.343,14.344-21.516,31.7-21.514,52.066c-0.001,20.28,7.171,37.592,21.514,51.936c14.388,14.387,31.72,21.579,52.001,21.58
			c20.279,0,37.612-7.192,52-21.58c12.133-12.132,19.175-26.888,21.126-44.265C434.329,328.237,433.396,325.875,431.575,324.054z"/>
	</g>
</g>
<g>
</g>
<g>
</g>
<g>
</g>
<g>
</g>
<g>
</g>
<g>
</g>
<g>
</g>
<g>
</g>
<g>
</g>
<g>
</g>
<g>
</g>
<g>
</g>
<g>
</g>
<g>
</g>
<g>
</g>
</svg>
